Coordinates
version=1
nRows=23
nColumns=38
inDegrees=no

Units are S.I. units (second, meters, Newtons, ...)
If the header above contains a line with 'inDegrees', this indicates whether rotational values are in degrees (yes) or radians (no).

endheader
time	pelvis_tilt	pelvis_list	pelvis_rotation	pelvis_tx	pelvis_ty	pelvis_tz	hip_flexion_r	hip_adduction_r	hip_rotation_r	knee_angle_r	ankle_angle_r	subtalar_angle_r	mtp_angle_r	hip_flexion_l	hip_adduction_l	hip_rotation_l	knee_angle_l	ankle_angle_l	subtalar_angle_l	mtp_angle_l	lumbar_extension	lumbar_bending	lumbar_rotation	arm_flex_r	arm_add_r	arm_rot_r	elbow_flex_r	pro_sup_r	wrist_flex_r	wrist_dev_r	arm_flex_l	arm_add_l	arm_rot_l	elbow_flex_l	pro_sup_l	wrist_flex_l	wrist_dev_l
0	-0.0598584	1.27185	-1.43235	0.823599	1.81361	0.959973	-0.424991	0.0915582	-0.215141	0.0469558	-0.167364	0	0	0.0869019	-0.176531	-0.278579	0.992832	-0.0882533	0	0	-0.449634	0.0114356	-0.190135	-0.0519111	-0.403363	0.501717	0.74116	0.91343	0	0	-0.35879	-0.355438	-0.0368267	1.00004	1.53562	0	0
0.01	-0.0652997	1.27384	-1.42964	0.823381	1.805	0.958895	-0.436264	0.0932137	-0.209593	0.0408671	-0.161921	0	0	0.0996118	-0.173036	-0.288559	0.943743	-0.0989787	0	0	-0.447968	0.0113459	-0.190699	-0.0394556	-0.41298	0.540484	0.741457	0.870952	0	0	-0.363639	-0.351522	-0.0444292	0.99968	1.53421	0	0
0.02	-0.068109	1.27233	-1.42899	0.823206	1.7961	0.957857	-0.451656	0.0949677	-0.208586	0.0346134	-0.158171	0	0	0.105775	-0.173213	-0.309343	0.895666	-0.107533	0	0	-0.450484	0.0100873	-0.188511	-0.0409034	-0.410794	0.531856	0.743336	0.878019	0	0	-0.366946	-0.35178	-0.0471757	0.999892	1.53074	0	0
0.03	-0.0754694	1.27217	-1.42563	0.823125	1.78649	0.95652	-0.465546	0.0968069	-0.208334	0.029919	-0.155783	0	0	0.111341	-0.18271	-0.3538	0.853251	-0.11756	0	0	-0.450053	0.00844221	-0.183494	-0.0429243	-0.410083	0.527813	0.743526	0.878525	0	0	-0.381824	-0.358195	-0.0465615	1.01638	1.52374	0	0
0.04	-0.0827987	1.26813	-1.42266	0.823137	1.77689	0.955207	-0.483669	0.0989917	-0.208301	0.0249679	-0.151366	0	0	0.109659	-0.205568	-0.435936	0.816014	-0.144127	0	0	-0.453166	0.0101064	-0.181813	-0.0425785	-0.416957	0.535775	0.752802	0.868407	0	0	-0.377595	-0.348579	-0.0560371	0.999426	1.5254	0	0
0.05	-0.06109	1.30367	-1.45661	0.822005	1.76733	0.949482	-0.419123	0.080797	-0.207574	0.0821265	-0.112068	0	0	0.152536	-0.194248	-0.470522	0.776997	-0.151058	0	0	-0.414277	-0.007925	-0.175952	-0.0423822	-0.417304	0.548933	0.749274	0.855042	0	0	-0.386272	-0.345417	-0.0664875	0.996004	1.53074	0	0
0.06	-0.101363	1.27677	-1.4054	0.823781	1.75802	0.951572	-0.496382	0.10351	-0.212337	0.0257697	-0.126516	0	0	0.126549	-0.206989	-0.491681	0.720089	-0.165197	0	0	-0.442911	0.0117125	-0.182806	-0.0358764	-0.420945	0.555612	0.749729	0.850542	0	0	-0.384131	-0.341809	-0.0707671	0.991123	1.53225	0	0
0.07	-0.110647	1.27819	-1.39403	0.824334	1.74915	0.949696	-0.506069	0.107495	-0.212168	0.0233371	-0.128555	0	0	0.132553	-0.204852	-0.506942	0.672217	-0.171836	0	0	-0.443316	0.0137768	-0.185358	-0.0336653	-0.422834	0.559005	0.752789	0.846175	0	0	-0.387014	-0.341756	-0.0756851	0.99129	1.53257	0	0
0.08	-0.122957	1.28334	-1.37929	0.825091	1.73998	0.947556	-0.509491	0.111227	-0.215932	0.0261601	-0.123829	0	0	0.141795	-0.201137	-0.515897	0.625853	-0.175821	0	0	-0.438773	0.0163409	-0.187981	-0.0312416	-0.424256	0.563572	0.75248	0.841465	0	0	-0.388707	-0.340531	-0.0803922	0.987779	1.53388	0	0
0.09	-0.136005	1.29204	-1.36368	0.825905	1.73053	0.945269	-0.507223	0.113954	-0.223233	0.0341157	-0.110906	0	0	0.153372	-0.195169	-0.519445	0.58177	-0.17247	0	0	-0.433696	0.0175493	-0.177906	-0.0798859	-0.370243	0.370978	0.748468	1.05364	0	0	-0.379828	-0.348803	-0.0628061	0.983412	1.52393	0	0
0.1	-0.144726	1.29696	-1.35278	0.826797	1.72126	0.94317	-0.507836	0.115298	-0.233275	0.0458488	-0.0938072	0	0	0.158772	-0.187156	-0.519502	0.540199	-0.158453	0	0	-0.426721	0.0186588	-0.193394	-0.0351335	-0.41293	0.532374	0.744084	0.884872	0	0	-0.391283	-0.335125	-0.0954877	0.980162	1.54315	0	0
0.11	-0.150647	1.30202	-1.3454	0.827629	1.71185	0.941294	-0.508295	0.115375	-0.241933	0.0568151	-0.0838579	0	0	0.16154	-0.176412	-0.514928	0.497947	-0.144379	0	0	-0.422411	0.0181484	-0.195122	-0.0345512	-0.410187	0.527002	0.740003	0.894168	0	0	-0.390613	-0.336011	-0.0964798	0.974116	1.54506	0	0
0.12	-0.15505	1.30716	-1.3406	0.828352	1.70227	0.939621	-0.508702	0.114633	-0.249461	0.0678784	-0.0753872	0	0	0.1617	-0.164092	-0.503759	0.454391	-0.132453	0	0	-0.417866	0.0163629	-0.195469	-0.0338381	-0.406645	0.521448	0.733872	0.903932	0	0	-0.389231	-0.337682	-0.096295	0.966874	1.54733	0	0
0.13	-0.15365	1.30914	-1.34284	0.828898	1.69271	0.938324	-0.513052	0.112713	-0.255141	0.0778616	-0.0744672	0	0	0.156926	-0.152037	-0.490277	0.414503	-0.124144	0	0	-0.416899	0.0130093	-0.194325	-0.031441	-0.406704	0.525721	0.730499	0.899738	0	0	-0.387754	-0.341407	-0.0942596	0.960519	1.54786	0	0
0.14	-0.14822	1.30951	-1.35016	0.829253	1.68308	0.937229	-0.517424	0.108964	-0.265487	0.0925569	-0.0679891	0	0	0.14904	-0.14059	-0.473245	0.378684	-0.120699	0	0	-0.417657	0.00797942	-0.193565	-0.0269473	-0.407207	0.535443	0.726817	0.890762	0	0	-0.388376	-0.345461	-0.0946811	0.95612	1.55019	0	0
0.15	-0.150899	1.31188	-1.35144	0.829416	1.67298	0.936034	-0.518109	0.105237	-0.275056	0.110649	-0.061462	0	0	0.144993	-0.135392	-0.461982	0.358264	-0.120362	0	0	-0.414703	0.00428056	-0.190983	-0.0239075	-0.407897	0.543835	0.723224	0.88266	0	0	-0.388355	-0.347011	-0.0965539	0.950238	1.5508	0	0
0.16	-0.152336	1.31147	-1.35423	0.829651	1.66279	0.935041	-0.521335	0.100885	-0.283966	0.129792	-0.0573136	0	0	0.140917	-0.134251	-0.458912	0.356569	-0.122646	0	0	-0.414736	0.00103401	-0.188362	-0.0226391	-0.40937	0.548459	0.723276	0.877484	0	0	-0.389124	-0.348285	-0.09973	0.946689	1.55032	0	0
0.17	-0.15598	1.31124	-1.35533	0.829992	1.65232	0.934086	-0.522842	0.0957966	-0.293361	0.152945	-0.0516543	0	0	0.138782	-0.135833	-0.460574	0.369319	-0.12915	0	0	-0.414045	-0.00186652	-0.184741	-0.0224314	-0.411833	0.553551	0.724178	0.87176	0	0	-0.390416	-0.349482	-0.10322	0.943512	1.55025	0	0
0.18	-0.160791	1.31236	-1.35544	0.830454	1.64152	0.9332	-0.521998	0.0898374	-0.302313	0.178721	-0.0438143	0	0	0.138768	-0.139261	-0.467394	0.393401	-0.137149	0	0	-0.414351	-0.00497433	-0.16794	-0.0684138	-0.370026	0.385212	0.726636	1.0506	0	0	-0.381662	-0.363265	-0.0776505	0.940375	1.53189	0	0
0.19	-0.163213	1.31098	-1.35759	0.831121	1.63068	0.932555	-0.5233	0.0832798	-0.31086	0.205649	-0.0404125	0	0	0.134693	-0.14243	-0.473603	0.419677	-0.138692	0	0	-0.413673	-0.00769435	-0.172763	-0.0435746	-0.399479	0.489593	0.727081	0.938776	0	0	-0.391606	-0.352141	-0.109999	0.939741	1.557	0	0
0.2	-0.162678	1.3112	-1.36196	0.831953	1.61958	0.932063	-0.522919	0.075779	-0.317363	0.23259	-0.0416343	0	0	0.129115	-0.141361	-0.473691	0.43653	-0.139224	0	0	-0.412491	-0.0112351	-0.169031	-0.0486383	-0.398174	0.479245	0.72715	0.950205	0	0	-0.393032	-0.35328	-0.113734	0.937599	1.55863	0	0
0.21	-0.157853	1.31204	-1.36959	0.833031	1.60834	0.931795	-0.521492	0.0668949	-0.323191	0.261289	-0.0446973	0	0	0.122623	-0.136706	-0.471507	0.443773	-0.146617	0	0	-0.410712	-0.0155816	-0.166425	-0.054053	-0.396275	0.467806	0.726417	0.961671	0	0	-0.39414	-0.354053	-0.118082	0.934958	1.55933	0	0
0.22	-0.148595	1.31319	-1.38007	0.834387	1.59694	0.931824	-0.519743	0.0565939	-0.328264	0.291669	-0.0498348	0	0	0.116862	-0.130313	-0.470107	0.446157	-0.164398	0	0	-0.408541	-0.0205725	-0.165423	-0.0597064	-0.393903	0.45593	0.724945	0.973987	0	0	-0.395071	-0.354909	-0.122266	0.932168	1.55887	0	0
